<svg id="OBJECTS" xmlns="http://www.w3.org/2000/svg" viewBox="0 0 380.27 79.7"><defs><style>.cls-1{fill:#fff;fill-rule:evenodd;}</style></defs><path class="cls-1" d="M263.13,104.42s32.31-29,50.89-28.66c11,.22,10.77,11.31,10.77,11.31s23.62-36.91,61.46-34.61c23.2,1.41,25.29,19.41,25.29,19.41S420,53.51,437,53.11c10.72-.25,14.53,7.64,14.53,7.64s21.88-38.41,61.76-35.92c37.22,2.33,33,32.52,33,32.52s13.61-9,24.72-8.24c12.29.8,8.68,12.72,9,12.6,4.59-1.93,18.55-7.16,22.91-8.49,23.13-7.09,43.31,5.62,40.3,25.73-2.18,14.58-12.32,25.47-12.32,25.47Z" transform="translate(-263.13 -24.72)"/></svg>